/* XPM */
static const char* const folder_xpm[ ] = {
    /* columns rows colors chars-per-pixel */
    "16 16 2 1",
    "X c #6ea09b",
    ". c #fcf6e5",
    /* pixels */
    "................",
    "................",
    ".XXXX...........",
    ".XXXX...........",
    ".XXXXXXXXXX.....",
    ".XXXXXXXXXX.....",
    "..XXXXXXXXXX....",
    "..XXXXXXXXXX....",
    "...XXXXXXXXXX...",
    "...XXXXXXXXXX...",
    "...XXXXXXXXXX...",
    "....XXXXXXXXXX..",
    "....XXXXXXXXXX..",
    ".....XXXXXXXXXX.",
    ".....XXXXXXXXXX.",
    "................"
};
