/* XPM */
static const char* const menu_xpm[ ] = {
    /* columns rows colors chars-per-pixel */
    "16 16 2 1",
    ". c #ffffff",
    "X c #000000",
    /* pixels */
    "XXXXXXXXXXXXXXXX",
    "................",
    "................",
    "................",
    "................",
    "XXXXXXXXXXXXXXXX",
    "................",
    "................",
    "................",
    "................",
    "XXXXXXXXXXXXXXXX",
    "................",
    "................",
    "................",
    "................",
    "XXXXXXXXXXXXXXXX"
};
