/* XPM */
static const char *SouvenirSheetBlack[] = {
/* columns rows colors chars-per-pixel */
"16 16 2 1 ",
"O c #000000",
"X c #FFFFFF",
/* pixels */
//234567890123456
"XXXXXXXXXXXXXXXX",//1
"XOOOOOOOOOOOOOOX",//2
"XOOXXXXXXXXOOOOX",//3
"XOOOOXXXXXXXXOOX",//4
"XOOOOOOOOOOOOOOX",//5
"XOOOOOOOOOOOOOOX",//6
"XOXXOXXXOXXOXXOX",//7
"XOXXOXXXOXXOXXOX",
"XOOOOOOOOOOOOOOX",//9
"XOXXOXXXOXXOXXOX",//10
"XOXXOXXXOXXOXXOX",//11
"XOOOOOOOOOOOOOOX",//12
"XOXXOXXXOXXOXXOX",//13
"XOXXOXXXOXXOXXOX",//14
"XOOOOOOOOOOOOOOX",//15
"XXXXXXXXXXXXXXXX" //16
};
