/* XPM */
static const char *StampBlack[] = {
/* columns rows colors chars-per-pixel */
"16 16 2 1 ",
"X c #FFFFFF",
". c #000000",
/* pixels */
//234567890123456
"..XXX..XXX..XX..",//1
"X..X....X......X",//2
"X.X...........XX",//3
"X.....XXXXX....X",//4
"....XXXXXXXX....",//5
"....XXX...XX....",//6
"X...XXX...XX...X",//7
"XX..XXX.XXXX..XX",//8
"XX..XXXX.XXX..XX",//9
"X...XX...XXX...X",//10
"....XX...XXX....",//11
"....XXXXXXXX....",//12
"X....XXXXX.....X",//13
"XX............XX",//14
"X..X...XX......X",//15
"..XXX..XXXX..XX." //16
};
