/* XPM */
static const char *StampGreenBlock[] = {
/* columns rows colors chars-per-pixel */
"16 16 2 1 ",
"  c #A0FFA0",
". c #00A000",
/* pixels */
".      ..      .",
"                ",
"  ....    ....  ",
"  ....    ....  ",
". ....    .... .",
"  ....  . ....  ",
"                ",
".      .  .     ",
".      ..   .  .",
"                ",
"  ....    ....  ",
"  .... .  ....  ",
". ....    .... .",
"  ....  . ....  ",
"                ",
".      .        "
};
