/* XPM */
static const char *StampBlackBlock[] = {
/* columns rows colors chars-per-pixel */
"16 16 2 1 ",
"X c #000000",
". c #FFFFFF",
/* pixels */
".XXXXXX.XXXXXXX.",
"XXXXXXXX.XXXXXXX",
"XX....X.XX....XX",
"XX....XX.X....XX",
".X....X.XX....X.",
"XX....XX.X....XX",
"XXXXXXX.XXXXXXXX",
".XXXXXXX.X.XXXXX",
".XXXXXX.X.XX.XX.",
"XXXXXXXX.XXXXXXX",
"XX....X.XX....XX",
"XX....XX.X....XX",
".X....X.XX....X.",
"XX....XX.X....XX",
"XXXXXXX.XXXXXXXX",
".XXXXXX.XXXXXXXX"
};
