/* XPM */
static const char *StampBlue[] = {
/* columns rows colors chars-per-pixel */
"16 16 2 1 ",
"O c #2A00FF",
"X c #D0D0FF",
/* pixels */
//234567890123456
"OOXXOOXXXXOOXXOO",//1
"XOOOOOOOOOOOOOOX",//2
"XOOOOOOOOOOOOOOX",//3
"XOOOOXXXXXXOOOOX",//4
"OOOOXXXXXXXXOOOO",//5
"OOOOXXXOOXXXOOOO",//6
"XOOOXXXOOXXXOOOX",//7
"XOOOXXXXXXXXOOOX",//8
"XOOOXXXXXXXXOOOX",//9
"XOOOXXXOOXXXOOOX",//10
"OOOOXXXOOXXXOOOO",//11
"OOOOXXXXXXXXOOOO",//12
"XOOOOXXXXXXOOOOX",//13
"XOOOOOOOOOOOOOOX",//14
"XOOOOOOOOOOOOOOX",//15
"OOXXOOXXXXOOXXOO" //16
};
