/* XPM */
static const char *MiniSheetPurple[] = {
/* columns rows colors chars-per-pixel */
"16 16 2 1 ",
"O c #C000C0",
"X c #FFC0FF",
/* pixels */
//234567890123456
"XXXXXXXXXXXXXXXX",//1
"XOOOOOOOOOOOOOOX",//2
"XOOOOXXXXXXOOOOX",//3
"XOOOOOOOOOOOOOOX",//4
"XOOOOXXXXXXXOOOX",//5
"XOOOOOOOOOOOOOOX",//6
"XOOOOOOOOOOOOOOX",//7
"XXXXXXXXXXXXXXXX",
"XOOOOOOOOOOOOOOX",//9
"XOXXXXXXXXXXXXOX",//10
"XOXOOOOXXOOOOXOX",//11
"XOXOOOOXXOOOOXOX",//12
"XOXOOOOXXOOOOXOX",//13
"XOXXXXXXXXXXXXOX",//14
"XOOOOOOOOOOOOOOX",//15
"XXXXXXXXXXXXXXXX" //16
};
