/* XPM */
static const char *StampBlack[] = {
/* columns rows colors chars-per-pixel */
"16 16 2 1 ",
"X c #FFFFFF",
". c #000000",
/* pixels */
//234567890123456
"..XX..XXXX..XX..",//1
"X..............X",//2
"X..............X",//3
"X.....XXXXX....X",//4
"....XXXXXXXX....",//5
"....XXX...XX....",//6
"X...XXX...XX...X",//7
"X...XXX.XXXX...X",//8
"X...XXXX.XXX...X",//9
"X...XX...XXX...X",//10
"....XX...XXX....",//11
"....XXXXXXXX....",//12
"X....XXXXX.....X",//13
"X..............X",//14
"X..............X",//15
"..XX..XXXX..XX.." //16
};
